<svg width="180" height="179" xmlns="http://www.w3.org/2000/svg" xmlns:xlink="http://www.w3.org/1999/xlink"><defs><linearGradient x1="50%" y1="0%" x2="50%" y2="100%" id="b"><stop stop-color="#37474F" offset="0%"/><stop stop-color="#2A2C33" offset="100%"/></linearGradient><linearGradient x1="50%" y1="0%" x2="50%" y2="100%" id="d"><stop stop-color="#18FFFF" offset="0%"/><stop stop-color="#06ACBE" offset="100%"/></linearGradient><path id="a" d="M178.96506 178.477532V.04077912H0V178.477532h178.96506z"/></defs><g transform="translate(.769571)" fill="none" fill-rule="evenodd"><mask id="c" fill="#fff"><use xlink:href="#a"/></mask><path d="M176.366401 83.0041739c3.464492 3.4551327 3.464492 9.0556815 0 12.5091121l-80.6102632 80.373535c-3.4653459 3.454281-9.0824498 3.454281-12.5477957 0L2.59807942 95.513286c-3.4644924-3.4534306-3.4644924-9.0539794 0-12.5091121L83.2083421 2.63149036c3.4653459-3.45428166 9.0824498-3.45428166 12.5477957 0L176.366401 83.0041739z" fill="url(#b)" mask="url(#c)"/><path d="M92.1127522 93.9837246c-.723483 2.2868782-1.1116217 4.7066544-1.1116217 7.2105724 0 14.129604 12.3525245 25.5834 27.5926845 25.5834 3.57254 0 6.986188-.630377 10.12136-1.777928L95.8389447 155.48197c-2.9762802 2.759549-7.5707402 3.099162-10.9467568 1.02194-12.361485-18.73181-17.4441253-38.249568-15.6257869-55.27205l-19.4907564-.011256c-1.7519828.08374-3.2321784-.538883-4.2950758-2.1260698 0 0-15.7656839-24.6055608-16.9023476-26.6027846-1.1366638-1.9972238-.3855199-4.5382525 1.6558119-4.2443865l31.4162977 6.5508885c2.8801092.8040608 3.9614046 1.3220093 4.6906309 3.0813285l5.0534478 12.2005082 5.955772-24.1649291c.4662425-2.434476 1.1041039-4.1479564 3.3331512-5.2150062l32.7480333-13.6597915c3.020204-1.397034 6.24007.4803597 5.730686 3.1351375l-7.585613 32.2140856c-1.252215 3.6589492-1.743614 4.6878967-4.270126 5.6109929l-15.1935608 5.9831471z" fill="url(#d)" mask="url(#c)"/></g></svg>